<?xml version="1.0" standalone="no"?>
<!DOCTYPE svg PUBLIC "-//W3C//DTD SVG 20010904//EN"
 "http://www.w3.org/TR/2001/REC-SVG-20010904/DTD/svg10.dtd">
<svg version="1.0" xmlns="http://www.w3.org/2000/svg"
 width="438.000000pt" height="438.000000pt" viewBox="0 0 438.000000 438.000000"
 preserveAspectRatio="xMidYMid meet">

<g transform="translate(0.000000,438.000000) scale(0.100000,-0.100000)"
fill="#000000" stroke="none">
<path d="M2599 3327 c4 -34 6 -36 9 -14 3 24 8 27 40 28 l37 1 -35 7 c-20 4
-40 10 -46 13 -6 4 -8 -9 -5 -35z"/>
<path d="M2780 3258 c0 -33 -39 -320 -44 -325 -3 -3 -37 28 -77 68 -45 48 -60
59 -39 32 17 -24 29 -43 26 -43 -4 0 -32 21 -63 47 -170 138 -442 201 -665
155 -80 -17 -225 -69 -216 -77 2 -2 44 11 93 27 77 27 109 32 220 36 109 3
144 1 218 -17 153 -36 306 -121 402 -221 l40 -42 -40 6 c-22 3 -98 8 -170 10
-152 6 -119 -5 94 -29 74 -9 138 -18 143 -21 5 -3 -13 -25 -39 -48 -27 -23
-64 -57 -83 -76 l-35 -33 40 29 c22 15 61 45 86 66 26 21 50 38 53 38 4 0 4
-78 0 -172 -4 -95 -4 -171 -1 -168 3 3 13 66 22 140 9 74 17 136 19 137 6 7
75 -155 93 -217 14 -51 18 -99 17 -215 -1 -135 -3 -158 -28 -235 -30 -91 -67
-165 -123 -244 -47 -66 -23 -48 28 21 49 66 111 195 134 278 25 91 31 264 12
361 -16 82 -64 217 -92 257 -32 46 -12 34 41 -26 78 -86 83 -89 41 -32 -74
101 -90 125 -85 130 3 3 80 0 170 -6 91 -6 174 -9 184 -7 19 4 -162 30 -300
44 l-69 7 79 74 79 75 -89 -68 c-87 -66 -89 -67 -83 -37 9 46 21 333 13 333
-3 0 -6 -6 -6 -12z"/>
<path d="M1658 3094 c-38 -20 -36 -28 2 -9 17 9 30 18 30 20 0 7 -1 6 -32 -11z"/>
<path d="M1666 2898 c-75 -76 -100 -109 -133 -178 -59 -120 -76 -194 -76 -325
0 -60 5 -128 11 -149 18 -61 8 -54 -26 19 -17 36 -33 65 -36 65 -3 0 8 -32 25
-71 16 -40 29 -78 29 -85 0 -9 -44 2 -141 37 -78 27 -143 48 -146 46 -4 -5
172 -83 234 -104 24 -8 43 -18 43 -22 0 -4 -31 -22 -70 -41 -38 -18 -68 -35
-66 -38 2 -2 37 10 77 27 40 17 74 30 75 28 1 -1 -20 -67 -47 -146 -27 -79
-47 -146 -45 -148 2 -2 30 59 62 136 32 77 62 137 66 135 5 -3 22 -35 38 -71
17 -37 33 -64 36 -61 3 4 -2 21 -11 40 l-16 33 22 -30 c12 -16 59 -67 104
-111 95 -94 196 -151 329 -184 81 -20 212 -26 290 -12 25 4 -6 7 -85 8 -140 0
-209 16 -324 71 -89 42 -170 105 -234 183 -47 57 -98 140 -86 140 3 0 58 -18
122 -40 64 -22 120 -39 124 -38 4 2 -55 30 -132 62 -76 32 -139 62 -139 66 0
3 34 21 75 40 42 18 74 34 72 37 -3 2 -38 -9 -78 -26 -49 -19 -75 -25 -77 -17
-1 6 18 71 43 145 24 74 43 136 41 138 -2 3 -26 -48 -52 -111 -27 -64 -52
-116 -55 -116 -13 0 -31 170 -24 232 20 192 98 351 233 475 31 29 53 53 49 53
-5 0 -50 -42 -101 -92z"/>
<path d="M1483 1714 c16 -8 31 -13 35 -10 8 8 1 12 -33 20 l-30 6 28 -16z"/>
<path d="M2348 1703 c7 -3 16 -2 19 1 4 3 -2 6 -13 5 -11 0 -14 -3 -6 -6z"/>
</g>
</svg>
